<svg version="1.1" id="Layer_1" xmlns="http://www.w3.org/2000/svg" xmlns:xlink="http://www.w3.org/1999/xlink" x="0px" y="0px" width="100%" viewBox="0 0 351 351" enable-background="new 0 0 351 351" xml:space="preserve">

<path fill="#0D233F" opacity="1.000000" stroke="none" d="
M110.132736,214.898209 
	C107.439049,209.796661 104.696503,204.720062 102.072464,199.582947 
	C100.773605,197.040176 98.051704,192.951736 98.831245,192.059631 
	C100.904480,189.686981 104.390259,187.790863 107.565002,187.287979 
	C115.447487,186.039429 122.138367,189.767227 126.919266,195.457657 
	C131.975861,201.476242 136.931427,208.133621 139.656769,215.368683 
	C141.580017,220.474411 139.891251,227.022125 139.464417,232.900604 
	C139.215912,236.323013 138.275864,239.695190 137.646973,243.089981 
	C138.128281,243.217438 138.609604,243.344894 139.090912,243.472351 
	C140.068085,240.438858 140.899063,237.348694 142.049133,234.382233 
	C145.889603,224.476181 150.142685,214.718262 153.631165,204.692535 
	C155.413620,199.569824 156.099701,194.027359 156.923691,188.620117 
	C157.753967,183.171494 160.266418,181.699173 165.451233,183.981461 
	C174.900940,188.141144 178.108734,196.364624 178.862518,205.654022 
	C179.697052,215.938461 178.803268,226.128799 175.437836,236.077652 
	C173.210754,242.661392 179.677673,253.678818 187.431061,257.780853 
	C197.190933,262.944427 207.492523,266.031250 218.481735,263.731293 
	C222.612732,262.866730 227.003357,260.511108 229.991837,257.542786 
	C234.784744,252.782227 232.182098,246.137924 224.461548,241.085571 
	C214.749969,234.730286 204.767517,228.733093 195.469223,221.818542 
	C187.011993,215.529434 183.717896,205.918411 182.528885,195.814545 
	C182.162979,192.705261 183.413696,189.217957 184.687195,186.228821 
	C185.027237,185.430649 188.456711,185.164276 190.003082,185.794373 
	C198.700470,189.338104 207.143021,193.525146 215.907135,196.879776 
	C220.324631,198.570648 225.224930,199.032303 229.928452,199.937988 
	C246.828384,203.192184 261.905640,209.661758 272.494202,224.027649 
	C278.106812,231.642548 281.346039,240.190140 283.073090,249.511673 
	C286.208191,266.432831 288.234528,283.738251 297.078827,299.020660 
	C299.218689,302.718231 302.384399,305.808228 304.761780,309.387878 
	C306.040802,311.313751 306.648285,313.685577 307.558746,315.856201 
	C305.346619,316.569183 303.141815,317.872223 300.921234,317.899719 
	C286.092407,318.083374 271.173065,318.992462 256.454193,317.707092 
	C242.436020,316.482910 228.232040,315.086548 214.821121,309.756836 
	C204.098816,305.495667 192.915787,302.362213 182.313263,297.845551 
	C177.481949,295.787415 173.606155,291.531464 169.200272,288.408875 
	C167.212906,287.000366 164.938232,286.004242 162.885727,284.678833 
	C160.413727,283.082550 158.187881,281.045563 155.591629,279.713623 
	C150.280594,276.988983 144.809296,274.572815 139.374832,272.093536 
	C130.799377,268.181274 122.130646,264.463165 113.668449,260.321533 
	C111.955444,259.483154 110.476059,257.321259 109.762321,255.438477 
	C107.117104,248.460617 105.108269,241.235703 102.336441,234.313385 
	C100.002693,228.485138 97.057175,222.888184 94.163277,217.302429 
	C92.066246,213.254807 92.859657,210.910568 97.333130,211.335709 
	C101.263466,211.709229 105.023918,213.870300 109.287888,215.445984 
	C109.855164,215.399460 109.993950,215.148834 110.132736,214.898209 
z" data-index="1" style="opacity: 1;"></path>
<path fill="#0D233F" opacity="1.000000" stroke="none" d="
M244.959900,141.023605 
	C246.938446,145.147049 248.975891,149.243561 250.877411,153.402222 
	C252.472977,156.891754 255.879730,161.123672 254.959915,163.828110 
	C253.547806,167.980057 247.960495,168.844162 243.726456,167.804214 
	C238.905991,166.620224 233.765091,164.958740 229.908264,162.008301 
	C222.109665,156.042435 216.172089,147.882324 214.148483,138.357697 
	C212.847519,132.234375 215.055664,125.394089 215.490768,118.861824 
	C215.723480,115.367889 215.532059,111.845711 214.975266,108.261833 
	C213.853943,123.420670 204.825165,135.773071 200.846069,149.827026 
	C199.411240,154.894730 198.255493,160.216217 198.159119,165.443771 
	C198.039368,171.939362 195.177948,173.383911 188.940216,171.135391 
	C180.479492,168.085526 177.942886,160.750809 175.856644,152.601334 
	C172.936951,141.196274 177.276443,130.647797 178.404007,119.775398 
	C179.383667,110.329147 176.221390,103.729973 168.785172,98.555252 
	C158.522430,91.413628 146.975403,89.665916 134.996536,91.422180 
	C131.343307,91.957794 127.645126,94.562096 124.716309,97.087395 
	C120.668945,100.577126 120.874397,106.523636 125.179062,109.732513 
	C132.741608,115.369965 140.574585,120.677155 148.546600,125.724167 
	C157.592743,131.451233 166.134125,137.841202 169.170029,148.485184 
	C170.884247,154.495316 170.654510,161.180267 170.522324,167.545105 
	C170.457748,170.654022 166.763107,171.246017 163.505997,169.049438 
	C153.738159,162.462143 142.948547,158.765717 131.338608,156.856812 
	C119.092979,154.843369 106.981682,151.850327 96.508080,144.821167 
	C82.955582,135.725632 74.849365,123.093025 71.763847,106.801414 
	C68.452415,89.317001 66.515640,71.297890 56.958332,55.605652 
	C54.729397,51.945950 51.645779,48.811069 49.358864,45.180573 
	C48.231842,43.391407 47.466763,40.964367 47.677090,38.944595 
	C47.761112,38.137730 50.910732,37.118187 52.673428,37.101543 
	C67.832741,36.958370 83.049240,36.232624 98.136375,37.287201 
	C109.221939,38.062077 120.248535,40.805893 131.099640,43.488426 
	C141.633850,46.092625 151.999023,49.479916 162.275330,52.999451 
	C172.043198,56.344849 181.173813,60.640518 187.692444,69.513893 
	C189.819778,72.409721 194.613525,73.353401 198.197662,75.170464 
	C201.678497,76.935158 205.125931,78.774864 208.668472,80.407005 
	C219.498642,85.396736 230.534409,89.981049 241.103058,95.468651 
	C243.718765,96.826813 245.573273,100.787514 246.565231,103.934113 
	C250.303131,115.790970 253.451477,127.814301 260.423218,138.392761 
	C262.666046,141.795837 261.412994,144.172318 257.446350,143.824585 
	C253.614212,143.488602 249.892990,141.887238 245.698563,140.639114 
	C245.062912,140.515778 244.851730,140.595062 244.640564,140.674362 
	C244.747009,140.790771 244.853455,140.907181 244.959900,141.023605 
z" data-index="2"></path>
<path fill="#000000" opacity="1.000000" stroke="none" d="
M109.979729,215.039383 
	C109.993950,215.148834 109.855164,215.399460 109.623062,215.561249 
	C109.529755,215.472412 109.826721,215.180557 109.979729,215.039383 
z" data-index="3"></path>
<path fill="#000000" opacity="1.000000" stroke="none" d="
M245.079620,140.924606 
	C244.853455,140.907181 244.747009,140.790771 244.640564,140.674362 
	C244.851730,140.595062 245.062912,140.515778 245.354706,140.530029 
	C245.435333,140.623550 245.199326,140.825607 245.079620,140.924606 
z" data-index="4"></path>
</svg>