<?xml version="1.0" encoding="UTF-8" standalone="no"?>
<svg
   version="1.1"
   id="Layer_1"
   x="0px"
   y="0px"
   width="100%"
   viewBox="0 0 336 336"
   enable-background="new 0 0 336 336"
   xml:space="preserve"
   sodipodi:docname="grafana_icon_dark_final.svg"
   inkscape:version="1.3.2 (091e20e, 2023-11-25, custom)"
   xmlns:inkscape="http://www.inkscape.org/namespaces/inkscape"
   xmlns:sodipodi="http://sodipodi.sourceforge.net/DTD/sodipodi-0.dtd"
   xmlns="http://www.w3.org/2000/svg"
   xmlns:svg="http://www.w3.org/2000/svg"><defs
   id="defs1" /><sodipodi:namedview
   id="namedview1"
   pagecolor="#505050"
   bordercolor="#ffffff"
   borderopacity="1"
   inkscape:showpageshadow="0"
   inkscape:pageopacity="0"
   inkscape:pagecheckerboard="1"
   inkscape:deskcolor="#505050"
   inkscape:zoom="3.3839286"
   inkscape:cx="167.85224"
   inkscape:cy="168"
   inkscape:window-width="2560"
   inkscape:window-height="1351"
   inkscape:window-x="3191"
   inkscape:window-y="586"
   inkscape:window-maximized="1"
   inkscape:current-layer="Layer_1" />
<path
   fill="#000000"
   opacity="1.000000"
   stroke="none"
   d=" M233.000000,337.000000   C155.333344,337.000000 78.166695,337.000000 1.000031,337.000000   C1.000021,225.000031 1.000021,113.000069 1.000010,1.000076   C112.999947,1.000051 224.999893,1.000051 336.999878,1.000025   C336.999939,112.999931 336.999939,224.999863 336.999969,336.999878   C302.500000,337.000000 268.000000,337.000000 233.000000,337.000000  M60.488190,120.139854   C70.498703,137.206558 86.759270,144.907196 104.946716,149.547318   C108.762344,150.520782 112.888924,150.236603 116.743919,151.102890   C124.061676,152.747330 131.280106,154.830322 138.552017,156.683228   C145.806778,158.531769 152.570786,161.434555 158.535080,166.006958   C161.744492,168.467407 163.261505,168.070297 164.639984,164.169174   C168.287613,153.846359 163.148758,138.243393 154.322937,131.739151   C146.574265,126.028725 138.201828,121.460373 129.774750,116.887604   C123.289505,113.368515 116.628807,109.967560 111.590179,104.250443   C107.931244,100.098778 107.762886,96.309120 111.879768,92.639252   C117.073105,88.009804 123.227928,85.087051 130.234451,84.690636   C141.937225,84.028496 152.888824,87.031265 162.964417,92.819031   C167.931274,95.672165 173.805145,98.446342 174.997803,104.688194   C175.948715,109.664886 176.460983,115.383347 174.929138,120.035316   C172.015320,128.884003 172.353439,137.742325 172.424850,146.673752   C172.503433,156.502716 179.890182,165.903992 189.096664,168.439316   C193.698532,169.706604 196.347809,167.929718 196.604599,163.343414   C197.183624,153.001434 200.818497,143.580811 204.814804,134.157211   C209.421188,123.295044 217.455826,113.409309 214.896729,99.495918   C218.655945,103.660339 220.743835,107.844154 219.018982,112.145058   C216.891083,117.450920 218.042130,123.476158 214.799393,128.406418   C214.240631,129.255936 214.573547,130.312103 214.921844,131.296844   C218.451218,141.275360 224.025772,149.803986 231.982895,156.906723   C240.824387,164.798904 254.247665,165.194077 260.661316,161.788849   C263.527954,160.266891 263.770508,158.753906 261.791901,156.375366   C259.256134,153.327087 256.735046,150.253830 254.418839,147.039154   C251.978500,143.652191 249.330582,140.244080 250.149429,134.762360   C254.946426,137.994400 260.148834,138.227707 264.875214,140.011734   C266.551666,140.644516 268.173615,140.840820 269.412537,139.278183   C270.649719,137.717697 269.498322,136.479538 268.618530,135.279205   C267.148682,133.273788 265.454529,131.407059 264.186584,129.283829   C258.936127,120.491585 256.114960,110.675903 252.462387,101.202904   C250.798859,96.888512 249.775970,92.120216 244.340637,90.172165   C235.525177,87.012650 226.998779,83.039917 218.161285,79.951500   C214.268463,78.591087 211.011337,75.407143 206.731369,75.502487   C203.217407,75.580772 200.776459,74.169708 198.411835,71.839378   C195.934952,69.398384 193.082275,66.130836 189.785614,66.462006   C186.352814,66.806854 185.095490,65.135567 183.276672,63.355446   C178.793137,58.967350 174.584946,54.299313 168.238876,52.312183   C162.497620,50.514431 156.995438,47.942699 151.238525,46.207714   C141.830948,43.372505 132.400070,40.459667 122.791458,38.498642   C115.883194,37.088726 108.780434,36.164726 101.866798,34.855648   C93.944366,33.355556 85.921371,32.125961 78.028831,31.654339   C62.590576,30.731812 47.057537,31.376688 31.563879,31.422554   C29.478359,31.428726 26.822613,30.716984 25.774029,33.196743   C24.607388,35.955700 26.718477,37.940689 28.493620,39.652000   C42.482464,53.137825 47.353867,71.029228 51.053146,88.992004   C53.222862,99.527626 54.931831,109.962440 60.488190,120.139854  M236.288605,314.115479   C250.334183,314.487091 264.092621,318.206635 278.226379,317.654633   C283.216797,317.459747 288.221222,317.623322 293.219238,317.621887   C301.216064,317.619629 309.212891,317.617065 317.209717,317.612793   C319.068176,317.611816 320.995850,317.634521 322.021576,315.699097   C323.228912,313.420959 321.198883,312.441071 320.007233,311.167206   C317.290314,308.262756 314.152222,305.658356 311.892944,302.435944   C302.187286,288.592560 298.479370,272.415405 294.707489,256.333344   C293.590240,251.569717 293.422211,246.679764 291.999756,241.848694   C288.061798,228.473999 279.823059,218.479446 268.696106,210.893585   C255.479401,201.883057 239.870056,199.170074 224.527420,196.611023   C212.522598,194.608688 201.170822,191.284225 190.621201,185.359680   C183.935745,181.605194 182.066757,182.257965 180.596268,189.761200   C180.406006,190.732071 180.332672,191.755829 180.398102,192.742294   C181.238373,205.413391 187.665268,214.808517 197.878632,221.773560   C209.189880,229.487305 222.221680,234.346710 233.062485,242.887833   C238.284866,247.002380 238.834549,252.032211 234.392624,256.738251   C228.856400,262.603638 221.830948,265.252167 214.052963,265.274200   C203.884598,265.303009 194.091827,262.335022 185.274811,257.722687   C172.735733,251.163330 167.643692,242.886581 172.122604,227.861618   C173.883331,221.955109 175.609070,215.883347 175.741150,209.490524   C175.826843,205.343018 174.209152,201.653671 173.255432,197.938705   C171.124588,189.638519 166.660095,182.733124 157.036835,181.106735   C154.806366,180.729797 152.863922,180.646652 151.926651,182.804169   C150.825150,185.339737 149.627228,188.072769 149.525635,190.760040   C149.172821,200.093094 144.668793,208.001816 141.549301,216.422302   C137.435760,227.526154 127.647888,237.238388 133.187943,251.058014   C130.217758,249.723923 128.761215,247.776413 128.745407,245.166321   C128.702469,238.072006 127.870529,230.929703 130.985718,224.075516   C132.282822,221.221573 131.811081,218.041534 130.684311,214.878433   C127.104126,204.827835 120.454536,197.243027 112.129234,190.972305   C104.938683,185.556320 96.685593,185.422104 88.384583,187.178009   C84.896278,187.915894 83.348602,190.350403 86.026817,193.868088   C88.631607,197.289307 91.309029,200.681915 93.586784,204.317490   C95.626060,207.572418 97.888016,210.889313 98.214127,216.233200   C92.912827,211.723831 87.699570,210.391937 82.237465,209.705460   C80.704979,209.512878 79.191650,209.198959 78.180603,210.711624   C77.214195,212.157532 78.396667,213.188187 79.065292,214.294739   C80.174553,216.130539 81.261406,217.980179 82.391106,219.803268   C88.527985,229.706787 91.273094,241.007050 95.475357,251.703751   C96.842445,255.183624 98.941193,257.652985 102.400177,259.051666   C111.983826,262.926880 121.465012,267.073181 131.147430,270.681030   C139.716507,273.873962 148.866745,275.780640 155.183670,283.229248   C155.931503,284.111053 156.963654,284.243347 157.916153,283.797333   C160.443695,282.613831 161.779312,284.366638 163.484818,285.688538   C166.997223,288.410889 169.118408,292.416229 173.284744,294.692566   C180.594009,298.686066 188.507431,300.885681 196.297119,303.288330   C202.984146,305.350861 209.630600,307.630157 216.572723,309.129150   C222.860413,310.486908 229.254578,311.964386 236.288605,314.115479  z"
   id="path1" />
<path
   style="fill:#ffffff;stroke-width:0.295515"
   d="m 188.38214,168.03636 c -8.18487,-2.61969 -14.6405,-10.67301 -15.65554,-19.53013 -0.59626,-5.2029 -0.18705,-16.60658 0.79039,-22.02602 0.26383,-1.4628 0.87049,-3.98944 1.34815,-5.61477 1.55143,-5.2791 1.35979,-13.62771 -0.42288,-18.4224 -1.30436,-3.508251 -6.08241,-7.196272 -15.24402,-11.766383 -13.78156,-6.874693 -30.10426,-8.163716 -40.04334,-3.162268 -4.16492,2.095833 -8.57283,5.644746 -9.66149,7.778692 -1.85324,3.632633 -0.22507,7.561259 4.99613,12.055199 3.30184,2.84194 6.86323,5.08286 16.57115,10.42702 22.28194,12.26609 26.84093,15.81088 30.95882,24.07167 3.14179,6.30264 4.34938,13.76381 3.15979,19.52296 -0.80419,3.89334 -2.045,6.03904 -3.49224,6.03904 -0.38687,0 -2.39619,-1.14081 -4.50659,-2.55866 -4.12364,-2.77043 -8.76392,-5.1315 -12.96939,-6.59907 -2.87734,-1.0041 -20.71424,-5.75935 -26.00528,-6.93291 -1.78786,-0.39655 -4.91292,-0.8704 -6.94459,-1.053 -4.45859,-0.40073 -8.26991,-1.26869 -14.428037,-3.28573 C 82.16195,142.17419 71.726275,135.28838 64.37713,125.56402 58.41459,117.6744 55.537898,110.18046 52.193827,93.825858 48.084158,73.726988 45.276373,64.558505 40.464669,55.525698 37.34856,49.67596 34.246397,45.436548 28.855888,39.661152 c -3.384705,-3.626377 -3.801736,-4.57231 -2.820856,-6.398428 0.308701,-0.574712 0.907666,-1.210671 1.331034,-1.413242 1.061244,-0.507776 42.250554,-0.60352 49.615464,-0.11533 6.440893,0.42694 13.168798,1.239213 19.835369,2.394762 2.824584,0.489599 9.457511,1.624006 14.739831,2.520905 5.28232,0.896899 11.67505,2.093186 14.20607,2.658415 9.64479,2.153881 25.2956,6.80211 34.11055,10.130702 3.41319,1.288846 6.9372,2.577759 7.83114,2.864251 2.18347,0.699772 5.44615,2.340642 7.16948,3.605681 0.77451,0.568541 3.43442,2.963699 5.91091,5.322575 2.4765,2.358874 5.03465,4.537543 5.68478,4.841482 0.75191,0.351521 1.85533,0.55498 3.03224,0.559108 2.61945,0.0092 3.99869,0.765226 7.63713,4.18635 3.84323,3.613679 5.20106,4.341061 8.79285,4.710274 3.36867,0.346281 3.95169,0.536025 8.26401,2.689516 1.92172,0.959674 4.71434,2.188743 6.2058,2.731263 2.4408,0.887835 19.34091,7.576389 24.13657,9.552519 2.38583,0.983123 4.07269,2.507402 5.27853,4.769787 0.51085,0.958451 2.44664,5.845808 4.30177,10.860778 4.37973,11.83978 4.58783,12.37427 6.31154,16.21049 1.98276,4.41276 3.91775,7.67137 6.80217,11.45516 2.70344,3.54638 2.96709,4.43039 1.69937,5.69811 -1.19943,1.19943 -1.37705,1.16936 -12.5728,-2.12859 -1.38153,-0.40696 -3.34759,-1.19463 -4.36901,-1.75038 -1.02143,-0.55575 -1.91906,-1.01045 -1.99472,-1.01045 -0.38309,0 -0.0654,4.01106 0.44817,5.65753 0.90455,2.90022 3.69537,7.07256 9.16284,13.69867 1.0729,1.30026 2.24397,2.78359 2.60238,3.29628 1.31574,1.8821 0.58996,3.36032 -2.28283,4.64956 -6.80389,3.0534 -17.41645,1.86874 -24.59987,-2.74605 -7.52494,-4.83418 -16.22978,-16.60387 -19.86844,-26.86384 -0.91585,-2.58244 -0.93999,-3.10173 -0.20018,-4.30635 0.98345,-1.60133 1.72911,-4.33525 2.35373,-8.6299 0.33296,-2.28926 0.95823,-5.27929 1.3895,-6.6445 1.36611,-4.3245 0.66786,-7.48268 -2.57136,-11.63015 -1.42277,-1.821697 -1.86259,-2.062231 -1.52648,-0.83481 0.35475,1.29551 0.24377,8.03123 -0.16433,9.97361 -0.83459,3.97226 -2.352,7.91951 -5.4422,14.15686 -7.94128,16.02895 -11.70076,27.0211 -12.64902,36.98387 -0.3917,4.11532 -0.98872,5.76294 -2.4,6.62337 -1.23532,0.75315 -3.5964,0.77141 -5.86488,0.0454 z"
   id="path2" /><path
   style="fill:#ffffff;stroke-width:0.295515"
   d="m 267.01654,317.20154 c -1.53352,-0.13614 -7.05225,-0.7854 -12.26385,-1.4428 -5.21161,-0.6574 -11.47037,-1.34082 -13.90836,-1.51872 -3.75882,-0.27428 -5.2414,-0.54281 -9.75198,-1.76633 -2.9256,-0.79358 -7.71293,-1.97893 -10.63852,-2.6341 -7.98443,-1.78809 -11.99627,-2.89807 -23.34565,-6.45918 -12.28449,-3.85453 -15.70385,-5.0304 -18.89034,-6.49611 -5.59971,-2.57573 -6.01791,-2.87128 -11.10438,-7.84775 -5.22788,-5.11482 -6.49419,-5.98203 -8.23948,-5.64268 -0.58808,0.11434 -1.4285,0.27603 -1.8676,0.3593 -0.68002,0.12896 -1.1452,-0.17898 -3.13797,-2.07725 -4.25911,-4.05714 -7.74286,-5.92492 -17.19295,-9.21781 -8.75855,-3.05192 -33.3012,-12.93819 -35.92201,-14.4701 -1.65159,-0.96539 -3.477178,-3.02125 -4.508027,-5.07667 -0.475551,-0.9482 -2.224602,-5.58047 -3.886779,-10.29393 -4.845832,-13.74138 -6.406991,-17.23211 -11.370569,-25.42442 -1.540997,-2.54339 -2.882673,-4.87911 -2.9815,-5.19049 -0.261164,-0.82286 1.331713,-2.33495 2.459688,-2.33495 1.380666,0 5.927213,0.83811 8.188091,1.50939 2.497116,0.74142 5.941874,2.49498 8.05277,4.09926 l 1.551451,1.1791 v -0.96767 c 0,-3.83726 -3.092963,-9.8047 -9.43455,-18.20267 -3.492537,-4.62506 -3.861181,-5.26457 -3.862498,-6.70047 -0.002,-2.1732 1.584228,-3.06636 6.817355,-3.83865 3.915399,-0.57783 8.738678,-0.4436 11.798958,0.32836 5.01453,1.26493 10.65277,5.09822 16.48751,11.20945 6.06841,6.35598 10.93687,15.30305 11.47447,21.08731 0.16486,1.77386 0.0739,2.28362 -0.90541,5.0736 -0.59878,1.70589 -1.27928,4.03248 -1.51224,5.17022 -0.574,2.80334 -0.82871,10.16543 -0.49854,14.40958 0.25097,3.22613 0.33418,3.55485 1.15951,4.58048 0.95942,1.19227 2.6062,2.43474 3.22701,2.43474 0.31224,0 0.30911,-0.1805 -0.0166,-0.96042 -0.63138,-1.51173 -1.3418,-5.34884 -1.3418,-7.24726 0,-4.42134 1.4454,-8.79845 5.60631,-16.97757 3.62332,-7.12238 9.89036,-22.36146 11.07206,-26.92309 0.41393,-1.59785 0.89117,-4.1245 1.06054,-5.61478 0.59931,-5.27331 1.54942,-8.66684 3.08089,-11.00416 1.01662,-1.55156 3.19804,-1.63234 7.4876,-0.27727 4.65581,1.47077 8.4454,4.87155 10.81656,9.70678 1.413,2.88136 4.05836,11.53932 4.61927,15.11835 0.56453,3.6021 -0.3151,9.98611 -2.38201,17.2876 -1.90081,6.71475 -2.343,8.79639 -2.54346,11.97344 -0.29724,4.71117 0.79303,8.9876 3.17344,12.44741 4.53978,6.59835 17.30865,13.35814 29.81066,15.78165 13.49174,2.61537 23.53194,0.25949 30.67116,-7.19682 2.34454,-2.44868 3.31665,-4.46014 3.31179,-6.85265 -0.007,-3.2054 -1.38624,-5.33042 -5.45764,-8.40572 -4.7931,-3.62043 -6.20814,-4.46145 -23.64116,-14.05107 -8.74018,-4.80783 -13.38642,-8.04449 -17.49214,-12.18536 -5.68874,-5.73745 -9.22355,-13.16154 -10.1334,-21.28299 -0.34059,-3.04014 0.0853,-6.02834 1.24427,-8.73116 1.34862,-3.14498 2.76572,-3.11403 9.17646,0.20043 11.37484,5.88098 19.42993,8.4217 36.11774,11.3922 18.00185,3.20441 24.62654,5.05337 33.39314,9.32009 15.0715,7.33533 25.66315,18.91912 30.53987,33.40057 0.84901,2.52116 1.49918,5.38266 2.24933,9.89974 1.14596,6.90042 4.36407,20.39038 6.5322,27.38224 2.78929,8.995 6.50848,17.21419 10.64881,23.53331 1.45301,2.21763 3.24451,4.30255 6.80823,7.92336 5.21012,5.29359 5.41803,5.65059 4.19569,7.20454 -1.32347,1.68253 -0.47326,1.63287 -27.20211,1.58873 -13.53609,-0.0224 -25.86577,-0.15202 -27.39928,-0.28816 z"
   id="path3" /></svg>
