<svg version="1.1" id="Layer_1" xmlns="http://www.w3.org/2000/svg" xmlns:xlink="http://www.w3.org/1999/xlink" x="0px" y="0px"
	 width="100%" viewBox="0 0 336 336" enable-background="new 0 0 336 336" xml:space="preserve">
<path fill="#000000" opacity="1.000000" stroke="none" 
	d="
M233.000000,337.000000 
	C155.333344,337.000000 78.166695,337.000000 1.000031,337.000000 
	C1.000021,225.000031 1.000021,113.000069 1.000010,1.000076 
	C112.999947,1.000051 224.999893,1.000051 336.999878,1.000025 
	C336.999939,112.999931 336.999939,224.999863 336.999969,336.999878 
	C302.500000,337.000000 268.000000,337.000000 233.000000,337.000000 
M60.488190,120.139854 
	C70.498703,137.206558 86.759270,144.907196 104.946716,149.547318 
	C108.762344,150.520782 112.888924,150.236603 116.743919,151.102890 
	C124.061676,152.747330 131.280106,154.830322 138.552017,156.683228 
	C145.806778,158.531769 152.570786,161.434555 158.535080,166.006958 
	C161.744492,168.467407 163.261505,168.070297 164.639984,164.169174 
	C168.287613,153.846359 163.148758,138.243393 154.322937,131.739151 
	C146.574265,126.028725 138.201828,121.460373 129.774750,116.887604 
	C123.289505,113.368515 116.628807,109.967560 111.590179,104.250443 
	C107.931244,100.098778 107.762886,96.309120 111.879768,92.639252 
	C117.073105,88.009804 123.227928,85.087051 130.234451,84.690636 
	C141.937225,84.028496 152.888824,87.031265 162.964417,92.819031 
	C167.931274,95.672165 173.805145,98.446342 174.997803,104.688194 
	C175.948715,109.664886 176.460983,115.383347 174.929138,120.035316 
	C172.015320,128.884003 172.353439,137.742325 172.424850,146.673752 
	C172.503433,156.502716 179.890182,165.903992 189.096664,168.439316 
	C193.698532,169.706604 196.347809,167.929718 196.604599,163.343414 
	C197.183624,153.001434 200.818497,143.580811 204.814804,134.157211 
	C209.421188,123.295044 217.455826,113.409309 214.896729,99.495918 
	C218.655945,103.660339 220.743835,107.844154 219.018982,112.145058 
	C216.891083,117.450920 218.042130,123.476158 214.799393,128.406418 
	C214.240631,129.255936 214.573547,130.312103 214.921844,131.296844 
	C218.451218,141.275360 224.025772,149.803986 231.982895,156.906723 
	C240.824387,164.798904 254.247665,165.194077 260.661316,161.788849 
	C263.527954,160.266891 263.770508,158.753906 261.791901,156.375366 
	C259.256134,153.327087 256.735046,150.253830 254.418839,147.039154 
	C251.978500,143.652191 249.330582,140.244080 250.149429,134.762360 
	C254.946426,137.994400 260.148834,138.227707 264.875214,140.011734 
	C266.551666,140.644516 268.173615,140.840820 269.412537,139.278183 
	C270.649719,137.717697 269.498322,136.479538 268.618530,135.279205 
	C267.148682,133.273788 265.454529,131.407059 264.186584,129.283829 
	C258.936127,120.491585 256.114960,110.675903 252.462387,101.202904 
	C250.798859,96.888512 249.775970,92.120216 244.340637,90.172165 
	C235.525177,87.012650 226.998779,83.039917 218.161285,79.951500 
	C214.268463,78.591087 211.011337,75.407143 206.731369,75.502487 
	C203.217407,75.580772 200.776459,74.169708 198.411835,71.839378 
	C195.934952,69.398384 193.082275,66.130836 189.785614,66.462006 
	C186.352814,66.806854 185.095490,65.135567 183.276672,63.355446 
	C178.793137,58.967350 174.584946,54.299313 168.238876,52.312183 
	C162.497620,50.514431 156.995438,47.942699 151.238525,46.207714 
	C141.830948,43.372505 132.400070,40.459667 122.791458,38.498642 
	C115.883194,37.088726 108.780434,36.164726 101.866798,34.855648 
	C93.944366,33.355556 85.921371,32.125961 78.028831,31.654339 
	C62.590576,30.731812 47.057537,31.376688 31.563879,31.422554 
	C29.478359,31.428726 26.822613,30.716984 25.774029,33.196743 
	C24.607388,35.955700 26.718477,37.940689 28.493620,39.652000 
	C42.482464,53.137825 47.353867,71.029228 51.053146,88.992004 
	C53.222862,99.527626 54.931831,109.962440 60.488190,120.139854 
M236.288605,314.115479 
	C250.334183,314.487091 264.092621,318.206635 278.226379,317.654633 
	C283.216797,317.459747 288.221222,317.623322 293.219238,317.621887 
	C301.216064,317.619629 309.212891,317.617065 317.209717,317.612793 
	C319.068176,317.611816 320.995850,317.634521 322.021576,315.699097 
	C323.228912,313.420959 321.198883,312.441071 320.007233,311.167206 
	C317.290314,308.262756 314.152222,305.658356 311.892944,302.435944 
	C302.187286,288.592560 298.479370,272.415405 294.707489,256.333344 
	C293.590240,251.569717 293.422211,246.679764 291.999756,241.848694 
	C288.061798,228.473999 279.823059,218.479446 268.696106,210.893585 
	C255.479401,201.883057 239.870056,199.170074 224.527420,196.611023 
	C212.522598,194.608688 201.170822,191.284225 190.621201,185.359680 
	C183.935745,181.605194 182.066757,182.257965 180.596268,189.761200 
	C180.406006,190.732071 180.332672,191.755829 180.398102,192.742294 
	C181.238373,205.413391 187.665268,214.808517 197.878632,221.773560 
	C209.189880,229.487305 222.221680,234.346710 233.062485,242.887833 
	C238.284866,247.002380 238.834549,252.032211 234.392624,256.738251 
	C228.856400,262.603638 221.830948,265.252167 214.052963,265.274200 
	C203.884598,265.303009 194.091827,262.335022 185.274811,257.722687 
	C172.735733,251.163330 167.643692,242.886581 172.122604,227.861618 
	C173.883331,221.955109 175.609070,215.883347 175.741150,209.490524 
	C175.826843,205.343018 174.209152,201.653671 173.255432,197.938705 
	C171.124588,189.638519 166.660095,182.733124 157.036835,181.106735 
	C154.806366,180.729797 152.863922,180.646652 151.926651,182.804169 
	C150.825150,185.339737 149.627228,188.072769 149.525635,190.760040 
	C149.172821,200.093094 144.668793,208.001816 141.549301,216.422302 
	C137.435760,227.526154 127.647888,237.238388 133.187943,251.058014 
	C130.217758,249.723923 128.761215,247.776413 128.745407,245.166321 
	C128.702469,238.072006 127.870529,230.929703 130.985718,224.075516 
	C132.282822,221.221573 131.811081,218.041534 130.684311,214.878433 
	C127.104126,204.827835 120.454536,197.243027 112.129234,190.972305 
	C104.938683,185.556320 96.685593,185.422104 88.384583,187.178009 
	C84.896278,187.915894 83.348602,190.350403 86.026817,193.868088 
	C88.631607,197.289307 91.309029,200.681915 93.586784,204.317490 
	C95.626060,207.572418 97.888016,210.889313 98.214127,216.233200 
	C92.912827,211.723831 87.699570,210.391937 82.237465,209.705460 
	C80.704979,209.512878 79.191650,209.198959 78.180603,210.711624 
	C77.214195,212.157532 78.396667,213.188187 79.065292,214.294739 
	C80.174553,216.130539 81.261406,217.980179 82.391106,219.803268 
	C88.527985,229.706787 91.273094,241.007050 95.475357,251.703751 
	C96.842445,255.183624 98.941193,257.652985 102.400177,259.051666 
	C111.983826,262.926880 121.465012,267.073181 131.147430,270.681030 
	C139.716507,273.873962 148.866745,275.780640 155.183670,283.229248 
	C155.931503,284.111053 156.963654,284.243347 157.916153,283.797333 
	C160.443695,282.613831 161.779312,284.366638 163.484818,285.688538 
	C166.997223,288.410889 169.118408,292.416229 173.284744,294.692566 
	C180.594009,298.686066 188.507431,300.885681 196.297119,303.288330 
	C202.984146,305.350861 209.630600,307.630157 216.572723,309.129150 
	C222.860413,310.486908 229.254578,311.964386 236.288605,314.115479 
z"/>
</svg>